<?xml version="1.0" encoding="UTF-8" standalone="no"?>
<svg
   width="113.82856"
   height="99.949226"
   viewBox="0 0 30.117139 26.4449"
   version="1.1"
   id="svg867"
   inkscape:version="1.1 (c4e8f9ed74, 2021-05-24)"
   sodipodi:docname="logo.svg"
   xmlns:inkscape="http://www.inkscape.org/namespaces/inkscape"
   xmlns:sodipodi="http://sodipodi.sourceforge.net/DTD/sodipodi-0.dtd"
   xmlns="http://www.w3.org/2000/svg"
   xmlns:svg="http://www.w3.org/2000/svg"
   xmlns:rdf="http://www.w3.org/1999/02/22-rdf-syntax-ns#"
   xmlns:cc="http://creativecommons.org/ns#"
   xmlns:dc="http://purl.org/dc/elements/1.1/">
  <defs
     id="defs861" />
  <sodipodi:namedview
     id="base"
     pagecolor="#ffffff"
     bordercolor="#666666"
     borderopacity="1.0"
     inkscape:pageopacity="0.0"
     inkscape:pageshadow="2"
     inkscape:zoom="1"
     inkscape:cx="-42"
     inkscape:cy="226.5"
     inkscape:document-units="px"
     inkscape:current-layer="layer1"
     inkscape:document-rotation="0"
     showgrid="false"
     units="px"
     inkscape:window-width="2491"
     inkscape:window-height="1363"
     inkscape:window-x="69"
     inkscape:window-y="40"
     inkscape:window-maximized="1"
     inkscape:pagecheckerboard="0" />
  <metadata
     id="metadata864">
    <rdf:RDF>
      <cc:Work
         rdf:about="">
        <dc:format>image/svg+xml</dc:format>
        <dc:type
           rdf:resource="http://purl.org/dc/dcmitype/StillImage" />
      </cc:Work>
    </rdf:RDF>
  </metadata>
  <g
     inkscape:label="Layer 1"
     inkscape:groupmode="layer"
     id="layer1"
     transform="translate(-143.42684,-72.237967)">
    <g
       id="g59555-1-1"
       transform="translate(-169.68484,59.348999)"
       style="display:inline"
       inkscape:export-filename="/home/aldomann/g59555-1-1.png"
       inkscape:export-xdpi="96"
       inkscape:export-ydpi="96">
      <circle
         style="fill:#ffffff;fill-opacity:1;stroke:none;stroke-width:1.32292;stroke-linecap:square;stroke-linejoin:round;stroke-miterlimit:3.25;stroke-opacity:1;stop-color:#000000"
         id="path54283-8-2"
         cx="317.65619"
         cy="29.418591"
         r="1.7604095" />
      <circle
         style="fill:#ffffff;fill-opacity:1;stroke:none;stroke-width:1.32292;stroke-linecap:square;stroke-linejoin:round;stroke-miterlimit:3.25;stroke-opacity:1;stop-color:#000000"
         id="circle58032-7-9"
         cx="323.42163"
         cy="29.418591"
         r="1.7604095" />
      <circle
         style="fill:#ffffff;fill-opacity:1;stroke:none;stroke-width:1.32292;stroke-linecap:square;stroke-linejoin:round;stroke-miterlimit:3.25;stroke-opacity:1;stop-color:#000000"
         id="circle58034-9-3"
         cx="317.65619"
         cy="35.202499"
         r="1.7604095" />
      <g
         id="g51159-2-1"
         transform="matrix(1.1382847,0,0,1.1382847,-43.298562,-3.5192433)">
        <g
           id="g51144-0-9">
          <path
             d="m 317.1041,31.114055 a 2.1776796,2.1776796 0 1 1 2.17768,-2.17768 2.1798573,2.1798573 0 0 1 -2.17768,2.17768 z m 0,-3.629467 a 1.4517865,1.4517865 0 1 0 1.45179,1.451787 1.4517865,1.4517865 0 0 0 -1.45179,-1.451787 z"
             id="path44189-6-2-4"
             style="fill:#ffffff;fill-opacity:1;stroke-width:0.362946" />
          <path
             d="m 327.2666,31.114055 a 2.1776796,2.1776796 0 1 1 2.17768,-2.17768 2.1798573,2.1798573 0 0 1 -2.17768,2.17768 z m 0,-3.629467 a 1.4517865,1.4517865 0 1 0 1.45179,1.451787 1.4517865,1.4517865 0 0 0 -1.45179,-1.451787 z"
             id="path44191-7-3-7"
             style="fill:#ffffff;fill-opacity:1;stroke-width:0.362946" />
          <path
             d="m 327.2666,36.195306 a 2.1776796,2.1776796 0 1 1 2.17768,-2.177679 2.1798573,2.1798573 0 0 1 -2.17768,2.177679 z m 0,-3.629465 a 1.4517865,1.4517865 0 1 0 1.45179,1.451786 1.4517865,1.4517865 0 0 0 -1.45179,-1.451786 z"
             id="path44193-5-7-8"
             style="fill:#ffffff;fill-opacity:1;stroke-width:0.362946" />
          <path
             d="m 332.34786,31.114055 a 2.1776796,2.1776796 0 1 1 2.17768,-2.17768 2.1798573,2.1798573 0 0 1 -2.17768,2.17768 z m 0,-3.629467 a 1.4517865,1.4517865 0 1 0 1.45178,1.451787 1.4517865,1.4517865 0 0 0 -1.45178,-1.451787 z"
             id="path44195-3-5-4"
             style="fill:#ffffff;fill-opacity:1;stroke-width:0.362946" />
          <path
             d="m 332.34786,36.195306 a 2.1776796,2.1776796 0 1 1 2.17768,-2.177679 2.1798573,2.1798573 0 0 1 -2.17768,2.177679 z m 0,-3.629465 a 1.4517865,1.4517865 0 1 0 1.45178,1.451786 1.4517865,1.4517865 0 0 0 -1.45178,-1.451786 z"
             id="path44197-5-9-5"
             style="fill:#ffffff;fill-opacity:1;stroke-width:0.362946" />
          <path
             d="m 322.18535,36.195306 a 2.1776796,2.1776796 0 1 1 2.17768,-2.177679 2.1798573,2.1798573 0 0 1 -2.17768,2.177679 z m 0,-3.629465 a 1.4517865,1.4517865 0 1 0 1.45179,1.451786 1.4517865,1.4517865 0 0 0 -1.45179,-1.451786 z"
             id="path44199-6-2-0"
             style="fill:#ffffff;fill-opacity:1;stroke-width:0.362946" />
          <path
             d="m 317.1041,36.195306 a 2.1776796,2.1776796 0 1 1 2.17768,-2.177679 2.1798573,2.1798573 0 0 1 -2.17768,2.177679 z m 0,-3.629465 a 1.4517865,1.4517865 0 1 0 1.45179,1.451786 1.4517865,1.4517865 0 0 0 -1.45179,-1.451786 z"
             id="path44201-2-2-3"
             style="fill:#ffffff;fill-opacity:1;stroke-width:0.362946" />
          <path
             d="m 335.25142,37.647094 h -21.05089 a 1.0888398,1.0888398 0 0 1 -1.08884,-1.08884 V 26.395748 a 1.0888398,1.0888398 0 0 1 1.08884,-1.08884 h 6.89598 v 0.725894 h -6.89598 a 0.36294662,0.36294662 0 0 0 -0.36295,0.362946 v 10.162506 a 0.36294662,0.36294662 0 0 0 0.36295,0.362946 h 21.05089 a 0.36294662,0.36294662 0 0 0 0.36296,-0.362946 V 26.395748 a 0.36294662,0.36294662 0 0 0 -0.36296,-0.362946 h -5.08124 v -0.725894 h 5.08124 a 1.0888398,1.0888398 0 0 1 1.08884,1.08884 v 10.162506 a 1.0888398,1.0888398 0 0 1 -1.08884,1.08884 z"
             id="path44203-9-8-6"
             style="fill:#ffffff;fill-opacity:1;stroke-width:0.362946" />
          <rect
             x="328.71838"
             y="25.306908"
             width="0.72589326"
             height="0.72589326"
             id="rect44205-1-9-1"
             style="fill:#ffffff;fill-opacity:1;stroke-width:0.362946" />
          <path
             d="m 322.18536,31.114055 a 2.1776796,2.1776796 0 1 1 2.17768,-2.17768 2.1798573,2.1798573 0 0 1 -2.17768,2.17768 z m 0,-3.629467 a 1.4517865,1.4517865 0 1 0 1.45178,1.451787 1.4517865,1.4517865 0 0 0 -1.45178,-1.451787 z"
             id="path44308-2-7-0"
             style="fill:#ffffff;fill-opacity:1;stroke-width:0.362946" />
        </g>
        <g
           id="g44306-7-3-6"
           inkscape:transform-center-x="-5.9628925"
           inkscape:transform-center-y="-3.9082083"
           transform="matrix(1.3287023,-0.34101935,0.34101935,1.3287023,-258.50313,89.155074)"
           style="display:inline;fill:#ffffff;fill-opacity:1">
          <path
             d="m 434.39858,55.366877 a 0.26458334,0.26458334 0 0 0 -0.33364,-0.169333 l -0.5027,0.164306 a 0.79375002,0.79375002 0 0 0 -0.50853,1.000919 l -1.00542,0.328083 -0.16404,-0.502708 a 0.26458334,0.26458334 0 0 0 -0.33364,-0.169333 l -6.03779,1.969293 -1.00542,0.328348 a 0.26458334,0.26458334 0 0 0 -0.1696,0.333375 l -1.25836,0.410369 a 0.25161876,0.25161876 0 0 0 -0.0249,0.01402 c -0.007,0.0034 -0.0159,0.0029 -0.023,0.0069 l -1.17554,0.661459 a 0.26458334,0.26458334 0 0 0 -0.12171,0.312737 l 0.16404,0.502708 a 0.26458334,0.26458334 0 0 0 0.25162,0.182563 0.25003126,0.25003126 0 0 0 0.0312,-0.0019 l 1.33959,-0.15875 c 0.006,0 0.0109,-0.0048 0.0167,-0.0058 a 0.25849792,0.25849792 0 0 0 0.0344,-0.0056 l 1.25757,-0.410369 v 0 a 0.26458334,0.26458334 0 0 0 0.33364,0.169069 l 0.75459,-0.246327 0.014,0.04286 a 1.5425209,1.5425209 0 0 0 1.94522,0.987954 l 3.63405,-1.183746 0.38444,0.519378 a 0.26246667,0.26246667 0 0 0 0.29448,0.09393 l 0.75486,-0.246327 a 0.26458334,0.26458334 0 0 0 0.16933,-0.333375 l -0.57441,-1.760803 1.00542,-0.328347 v 0 a 0.79375002,0.79375002 0 0 0 1.0025,0.507735 l 0.50271,-0.164042 a 0.26458334,0.26458334 0 0 0 0.16934,-0.333904 z m -12.09384,4.730486 0.70512,-0.396875 0.12806,0.392641 -0.80381,0.09499 z m 1.35441,-0.113242 -0.16405,-0.502708 1.00542,-0.328348 0.16431,0.502708 z m 1.59146,-0.240771 v 0 l -0.32808,-1.005416 0.50271,-0.164042 0.32835,1.005417 z m 6.95643,0.235215 -0.3847,-0.519377 a 0.26458334,0.26458334 0 0 0 -0.29475,-0.09393 l -3.81529,1.243541 a 1.0149417,1.0149417 0 0 1 -1.2782,-0.649287 l -0.25612,-0.784754 -0.25003,-0.767292 1.50971,-0.490273 0.24606,0.754856 0.50271,-0.164306 -0.24633,-0.754592 0.50271,-0.164041 0.24633,0.754591 0.50271,-0.164306 -0.24606,-0.754591 0.5027,-0.164042 0.24633,0.754592 0.50271,-0.164307 -0.24606,-0.754591 0.5027,-0.164042 0.24607,0.754856 0.50271,-0.164306 -0.24633,-0.754592 0.50271,-0.164306 0.16404,0.502708 v 0 l 0.32808,1.005417 v 0 l 0.57441,1.760273 z m 0.16854,-2.281502 -0.16404,-0.502709 1.00541,-0.328348 0.16405,0.502709 z m 2.00686,0.180181 a 0.26458334,0.26458334 0 0 1 -0.33364,-0.169598 l -0.082,-0.251354 v 0 l -0.32834,-1.005417 v 0 l -0.082,-0.251354 a 0.26458334,0.26458334 0 0 1 0.17093,-0.334698 l 0.25135,-0.08202 0.6567,2.012157 z"
             id="path44291-0-6-3"
             style="fill:#ffffff;fill-opacity:1;stroke-width:0.264583" />
        </g>
      </g>
    </g>
  </g>
</svg>
